<?xml version="1.0" standalone="no"?>
<!DOCTYPE svg PUBLIC "-//W3C//DTD SVG 20010904//EN"
 "http://www.w3.org/TR/2001/REC-SVG-20010904/DTD/svg10.dtd">
<svg fill="#3a539b" version="1.0" xmlns="http://www.w3.org/2000/svg"
 width="280.000000pt" viewBox="0 0 280.000000 252.000000"
 preserveAspectRatio="xMidYMid meet">

<g transform="translate(0.000000,252.000000) scale(0.100000,-0.100000)"
fill="#3a539b" stroke="none">
<path d="M1230 2354 c-262 -48 -475 -157 -651 -334 -234 -237 -357 -584 -321
-909 29 -259 132 -485 306 -669 129 -137 294 -242 474 -303 175 -59 192 -40
192 215 l0 163 29 40 c71 98 211 98 282 0 l29 -40 0 -163 c0 -255 17 -274 191
-215 183 62 344 165 475 303 89 94 142 172 199 291 144 300 150 636 18 944
-135 312 -417 555 -753 649 -83 23 -117 26 -270 29 -96 2 -186 1 -200 -1z
m380 -219 c166 -40 306 -115 429 -231 133 -125 215 -257 268 -431 23 -78 26
-105 27 -243 1 -171 -15 -257 -73 -385 -55 -121 -161 -265 -194 -265 -9 0 -27
10 -41 23 -23 21 -28 42 -70 333 -25 171 -48 318 -51 327 -9 21 -37 27 -128
27 -111 0 -117 -5 -117 -95 0 -41 -4 -75 -10 -77 -6 -2 -36 -1 -68 2 l-57 5
-5 75 c-5 74 -5 75 -37 85 l-33 9 0 73 0 73 35 17 c19 9 31 21 28 26 -3 6 -1
7 6 3 7 -4 41 5 77 20 48 20 66 33 71 51 8 35 -15 52 -143 107 -120 51 -159
56 -158 19 0 -12 -3 -20 -8 -17 -4 3 -8 -81 -8 -185 0 -105 -3 -191 -7 -192
-58 -6 -67 -18 -65 -86 2 -87 1 -88 -65 -86 -32 1 -61 2 -65 2 -5 1 -8 35 -8
76 0 65 -3 76 -21 86 -26 13 -204 9 -217 -6 -6 -5 -31 -151 -56 -323 -25 -173
-51 -323 -57 -333 -12 -23 -52 -41 -74 -33 -27 11 -115 136 -160 229 -72 147
-90 232 -89 415 1 138 4 165 27 243 52 171 134 304 261 425 142 135 290 210
486 247 92 18 277 13 370 -10z"/>
</g>
</svg>
